# xmcd CD database file
#
# Track frame offsets:
#	150
#	23078
#	40585
#
# Disc length: 844 seconds
#
# Revision: 0
# Processed by: cddbd v1.5.1PL2 Copyright (c) Steve Scherf et al.
# Submitted via: CDex 1.51
#
DISCID=16034a03
DTITLE=扇愛奈 - レトルト
DYEAR=2006
DGENRE=J-Pop
TTITLE0=レトルト
TTITLE1=勝利宣言
TTITLE2=レトルト(Instrumental)
EXTD=YEAR: 2006
EXTT0=
EXTT1=
EXTT2=
PLAYORDER=
